PathFileType	4	(X/Y/Z)	/tmp/tmpepkllnfa/sub03/MarkerData/sub03_strifc_cond00000_speed02000_0001_0003_trc_segment_0.trc
DataRate	CameraRate	NumFrames	NumMarkers	Units	OrigDataRate	OrigDataStartFrame	OrigNumFrames
1001.32	1001.32	6	49	m	1001.32	0	760
Frame#	Time	C7			LANK			LASI			LBiceps			LClavicle			LD1M			LElbow			LForearm			LHEE			LKNE			LLCA			LMElbow			LMT5			LPSI			LSH1			LSH2			LSH3			LSTL			LShoulder			LTH1			LTH2			LTH3			LTHI			LTIB			LTOE			LWrist			RANK			RASI			RBiceps			RD1M			RElbow			RForearm			RHEE			RKNE			RLCA			RMElbow			RMT5			RPSI			RSH1			RSH2			RSTL			RShoulder			RTH1			RTH2			RTH3			RTHI			RTIB			RTOE			RWrist		
		X1	Y1	Z1	X2	Y2	Z2	X3	Y3	Z3	X4	Y4	Z4	X5	Y5	Z5	X6	Y6	Z6	X7	Y7	Z7	X8	Y8	Z8	X9	Y9	Z9	X10	Y10	Z10	X11	Y11	Z11	X12	Y12	Z12	X13	Y13	Z13	X14	Y14	Z14	X15	Y15	Z15	X16	Y16	Z16	X17	Y17	Z17	X18	Y18	Z18	X19	Y19	Z19	X20	Y20	Z20	X21	Y21	Z21	X22	Y22	Z22	X23	Y23	Z23	X24	Y24	Z24	X25	Y25	Z25	X26	Y26	Z26	X27	Y27	Z27	X28	Y28	Z28	X29	Y29	Z29	X30	Y30	Z30	X31	Y31	Z31	X32	Y32	Z32	X33	Y33	Z33	X34	Y34	Z34	X35	Y35	Z35	X36	Y36	Z36	X37	Y37	Z37	X38	Y38	Z38	X39	Y39	Z39	X40	Y40	Z40	X41	Y41	Z41	X42	Y42	Z42	X43	Y43	Z43	X44	Y44	Z44	X45	Y45	Z45	X46	Y46	Z46	X47	Y47	Z47	X48	Y48	Z48	X49	Y49	Z49

1	0.002	0.0252278	1.53393	-0.00128798	0.206398	0.145957	-0.139059	0.155615	1.09695	-0.125723	-0.00523196	1.37079	-0.240033	0.213589	1.49721	-0.0706854	0.35286	0.0669716	-0.0373106	-0.0908803	1.3076	-0.254357	0.00794789	1.26732	-0.22457	0.155758	0.0911243	-0.0820713	0.189188	0.547205	-0.148723	0.215303	0.0609815	-0.131337	-0.117041	1.28591	-0.140939	0.35639	0.0393448	-0.146897	-0.00507588	1.11758	-0.0204889	0.229007	0.37191	-0.141678	0.14203	0.434296	-0.158441	0.157511	0.357018	-0.155861	0.220194	0.0906202	-0.0475467	0.120542	1.54281	-0.213202	0.209507	0.704287	-0.151367	0.115735	0.757546	-0.157993	0.138661	0.682251	-0.151134	0.186693	0.778137	-0.161689	0.214085	0.449001	-0.148643	0.408643	0.0733435	-0.0784023	0.119066	1.1878	-0.247965	-0.312821	0.263295	0.128748	0.15939	1.08813	0.143562	0.176475	1.35684	0.237335	-0.287048	0.0926062	0.0345378	0.150861	1.28821	0.291819	0.204676	1.26956	0.201166	-0.38179	0.275463	0.0656004	-0.0382757	0.557716	0.148109	-0.37233	0.206861	0.122102	0.0655915	1.20838	0.228032	-0.312388	0.0894113	0.149115	-0.002748	1.1162	0.0358107	-0.236946	0.283322	0.112895	-0.254509	0.388549	0.122869	-0.352373	0.216223	0.0336857	0.176456	1.56004	0.144705	0.0391536	0.633027	0.15001	-0.0148079	0.726586	0.151866	-0.0321358	0.65208	0.138231	0.0563264	0.708868	0.162881	-0.193295	0.346335	0.125352	-0.25203	0.0605295	0.0776594	0.334564	1.24044	0.182791
2	0.00299868	0.0252258	1.53373	-0.00153217	0.205826	0.145557	-0.138845	0.155606	1.09668	-0.125916	-0.00490912	1.37039	-0.240444	0.213664	1.49697	-0.0708307	0.352174	0.0663802	-0.0370605	-0.0904835	1.3071	-0.254892	0.00836954	1.2669	-0.225009	0.155072	0.0908275	-0.0817752	0.189393	0.546871	-0.14887	0.214535	0.0605494	-0.131061	-0.11675	1.28534	-0.141496	0.355654	0.0388904	-0.146737	-0.00512346	1.11727	-0.0205456	0.228925	0.37146	-0.141695	0.142033	0.433983	-0.158463	0.157388	0.356674	-0.155826	0.219553	0.0902715	-0.0472736	0.120666	1.54258	-0.213427	0.20965	0.704015	-0.151688	0.11583	0.75724	-0.158066	0.138811	0.681944	-0.151233	0.186774	0.777862	-0.161985	0.214132	0.448578	-0.148736	0.407985	0.0727117	-0.0781689	0.1196	1.18749	-0.248301	-0.313252	0.263843	0.128598	0.15941	1.08791	0.143447	0.176184	1.35665	0.237381	-0.287966	0.0931377	0.0342891	0.150428	1.28806	0.291884	0.204287	1.26921	0.201254	-0.382265	0.276229	0.0654947	-0.0374943	0.557173	0.14816	-0.372926	0.207578	0.121978	0.0650575	1.20831	0.22806	-0.313232	0.0899613	0.148896	-0.00277109	1.11589	0.0357734	-0.237323	0.283583	0.112742	-0.25444	0.388885	0.122783	-0.353022	0.216915	0.0335293	0.176445	1.55984	0.144561	0.0399147	0.632533	0.150009	-0.0141745	0.726036	0.15185	-0.03141	0.651495	0.138213	0.0570036	0.708415	0.162822	-0.193392	0.346411	0.125242	-0.252981	0.0609593	0.0773769	0.334152	1.23985	0.183005
3	0.00399737	0.0252217	1.53341	-0.00177666	0.205191	0.145141	-0.138611	0.155585	1.09633	-0.126098	-0.00458092	1.36987	-0.240838	0.213723	1.49661	-0.0709691	0.351408	0.0657636	-0.0368011	-0.090073	1.30649	-0.255413	0.00879714	1.26636	-0.225435	0.154324	0.090509	-0.0814654	0.189592	0.546487	-0.149011	0.213702	0.0601115	-0.130775	-0.116447	1.28465	-0.142048	0.354845	0.0384417	-0.146564	-0.00517238	1.11686	-0.0205991	0.228814	0.370969	-0.141695	0.142024	0.433635	-0.158482	0.157242	0.3563	-0.155785	0.218842	0.0898961	-0.0469906	0.120783	1.54221	-0.213636	0.209786	0.703683	-0.152005	0.115922	0.756867	-0.158134	0.13896	0.681577	-0.151326	0.186846	0.77752	-0.162273	0.214163	0.448108	-0.148819	0.407246	0.0720651	-0.077918	0.120132	1.18709	-0.248618	-0.313645	0.264368	0.12844	0.159416	1.0876	0.143322	0.175874	1.35635	0.237409	-0.288846	0.0936628	0.0340344	0.149974	1.2878	0.291925	0.203877	1.26875	0.201327	-0.382699	0.27697	0.0653871	-0.036699	0.556578	0.148203	-0.373478	0.208275	0.121847	0.0645104	1.20815	0.228069	-0.314034	0.0905013	0.148663	-0.00279579	1.11548	0.035735	-0.237667	0.283819	0.112581	-0.254336	0.389187	0.122691	-0.35363	0.217589	0.0333712	0.176419	1.55951	0.144408	0.0406825	0.631983	0.149998	-0.0135323	0.725421	0.151825	-0.0306724	0.650853	0.138188	0.0576854	0.707899	0.162753	-0.193462	0.346455	0.125123	-0.253894	0.0613846	0.0770838	0.333708	1.23914	0.183214
4	0.00499605	0.0252135	1.53283	-0.00202122	0.204476	0.144695	-0.138342	0.155537	1.09577	-0.126259	-0.0042469	1.36911	-0.241194	0.213746	1.49598	-0.0710943	0.350533	0.0651171	-0.0365285	-0.0896407	1.30564	-0.255894	0.00922947	1.2656	-0.225826	0.1535	0.0901606	-0.0811346	0.189769	0.546003	-0.149131	0.212787	0.0596621	-0.130465	-0.116119	1.28374	-0.142581	0.353933	0.0379959	-0.146363	-0.00522127	1.11626	-0.0206481	0.228654	0.370403	-0.141666	0.141991	0.433209	-0.158481	0.15706	0.35586	-0.155722	0.218043	0.0894855	-0.0466938	0.120882	1.54158	-0.213808	0.209894	0.703224	-0.152305	0.116003	0.756358	-0.15818	0.139094	0.681086	-0.151398	0.186893	0.777039	-0.162537	0.214158	0.44755	-0.148879	0.406388	0.0713981	-0.0776421	0.12065	1.18647	-0.248895	-0.313971	0.264845	0.128261	0.159393	1.0871	0.143173	0.175529	1.35581	0.237396	-0.289663	0.0941726	0.0337714	0.149485	1.28731	0.291914	0.203426	1.26806	0.201366	-0.383055	0.277662	0.0652713	-0.0358868	0.555878	0.148223	-0.373951	0.208933	0.121695	0.0639443	1.20778	0.228038	-0.314764	0.0910233	0.148402	-0.00282211	1.11488	0.0356917	-0.237958	0.284004	0.112399	-0.254173	0.389417	0.122583	-0.354165	0.218225	0.0332083	0.176361	1.55891	0.14423	0.0414528	0.631318	0.149965	-0.0128803	0.724674	0.151779	-0.0299207	0.65009	0.138143	0.058365	0.707255	0.162658	-0.193485	0.346436	0.124983	-0.254746	0.0618001	0.0767731	0.333202	1.23821	0.183399
5	0.00599474	0.0252049	1.53221	-0.00226694	0.203709	0.144243	-0.138061	0.155484	1.0952	-0.126418	-0.0039071	1.36832	-0.241548	0.213766	1.49533	-0.0712174	0.349599	0.0644515	-0.0362473	-0.0892006	1.30477	-0.256377	0.00966882	1.26481	-0.226218	0.152621	0.0897957	-0.0807955	0.189955	0.545504	-0.149253	0.211822	0.0592114	-0.130154	-0.115784	1.2828	-0.143119	0.352968	0.0375612	-0.146157	-0.00527108	1.11563	-0.0206955	0.228478	0.369819	-0.141628	0.141955	0.432775	-0.158485	0.156863	0.355412	-0.155662	0.217187	0.0890528	-0.0463902	0.12098	1.54092	-0.213978	0.210007	0.702748	-0.15261	0.11609	0.755829	-0.158229	0.139237	0.680577	-0.151471	0.186943	0.776541	-0.162803	0.21415	0.446974	-0.148936	0.405471	0.0707227	-0.0773517	0.121174	1.18582	-0.24917	-0.314279	0.265314	0.128082	0.159364	1.08658	0.143024	0.175175	1.35524	0.237379	-0.290459	0.0946817	0.0335053	0.148985	1.28679	0.291896	0.202965	1.26734	0.201404	-0.383392	0.278346	0.0651575	-0.0350631	0.555162	0.148243	-0.374403	0.209583	0.121543	0.0633693	1.20738	0.228001	-0.315472	0.0915407	0.148136	-0.00285101	1.11426	0.035649	-0.238231	0.28418	0.112217	-0.253992	0.389636	0.122477	-0.35468	0.218856	0.0330454	0.176299	1.55828	0.144051	0.0422321	0.630635	0.149931	-0.0122201	0.723908	0.151733	-0.0291601	0.649309	0.138099	0.0590515	0.706594	0.162562	-0.193492	0.346407	0.124843	-0.255577	0.0622156	0.0764568	0.332684	1.23723	0.18359
6	0.00699342	0.0251985	1.53176	-0.00251417	0.202911	0.143802	-0.137784	0.155449	1.09474	-0.12659	-0.0035621	1.36767	-0.241932	0.21381	1.49483	-0.0713468	0.348648	0.0637756	-0.0359612	-0.0887629	1.30403	-0.256894	0.0101163	1.26415	-0.226639	0.151704	0.0894247	-0.0804577	0.190172	0.545056	-0.149397	0.210829	0.0587676	-0.129857	-0.115456	1.28198	-0.143678	0.351993	0.0371436	-0.145963	-0.00532197	1.11511	-0.0207439	0.228314	0.369261	-0.141598	0.141934	0.432386	-0.158516	0.15667	0.354998	-0.155622	0.216297	0.0886076	-0.0460847	0.121093	1.54042	-0.214171	0.210153	0.702343	-0.152942	0.116197	0.755373	-0.158303	0.139406	0.680134	-0.151566	0.187021	0.776123	-0.163092	0.214165	0.446432	-0.149011	0.404542	0.0700497	-0.0770556	0.121717	1.1853	-0.249473	-0.314605	0.265808	0.127917	0.159351	1.08616	0.142891	0.174835	1.35481	0.237388	-0.29127	0.0952009	0.0332403	0.148491	1.28641	0.291907	0.202521	1.26675	0.201465	-0.383758	0.279057	0.0650537	-0.0342312	0.554496	0.148283	-0.374879	0.210251	0.121404	0.0627926	1.2071	0.227988	-0.316196	0.0920649	0.147883	-0.00288305	1.11374	0.0356107	-0.238514	0.284384	0.112047	-0.253822	0.389891	0.122388	-0.355218	0.21951	0.0328873	0.176254	1.5578	0.143889	0.0430257	0.630014	0.149916	-0.011553	0.723211	0.151708	-0.0283933	0.648589	0.138074	0.0597529	0.706002	0.162487	-0.193505	0.34641	0.124718	-0.256416	0.0626383	0.0761446	0.332195	1.23637	0.183811
